<svg xmlns="http://www.w3.org/2000/svg" width="239.996" height="105.114" viewBox="0 0 239.996 105.114">
  <path id="logo-footer" d="M87.557,35a52.557,52.557,0,1,0,52.557,52.557A52.557,52.557,0,0,0,87.557,35ZM51.994,98.257A20.993,20.993,0,0,1,68.989,73.9l7.364,41.353a21.073,21.073,0,0,1-24.359-17Zm37.766,8.749h-6.8L75.409,65.024h22.03ZM123.245,84.1a21.04,21.04,0,0,1-24.358,16.99l7.364-41.353A20.961,20.961,0,0,1,123.245,84.1Zm32.794-22.79c0-4.091,2.392-7.238,6.42-7.238a5.843,5.843,0,0,1,5.35,3.021l-1.511.881a4.188,4.188,0,0,0-3.839-2.329c-3.084,0-4.532,2.644-4.532,5.6s1.448,5.665,4.658,5.665a4.248,4.248,0,0,0,3.839-2.266l1.511.818a5.962,5.962,0,0,1-5.35,3.021c-4.154.063-6.546-3.084-6.546-7.175Zm21.589,5.665a4.744,4.744,0,0,1-3.714,1.574c-3.084,0-4.847-2.014-4.847-5.161s1.762-5.1,4.6-5.1,4.343,2.077,4.343,4.784a5.086,5.086,0,0,1-.063,1.007H170.83a2.907,2.907,0,0,0,3.084,2.958,2.964,2.964,0,0,0,2.518-1.2l1.2,1.133Zm-1.322-4.28c-.126-1.637-.944-2.9-2.644-2.9s-2.644,1.259-2.769,2.9Zm3.9-4.154h1.7l.063,1.448h.063a3.565,3.565,0,0,1,3.21-1.637,3.238,3.238,0,0,1,3.462,3.462V68.36h-1.762V62.128a2.1,2.1,0,0,0-2.2-2.266,2.561,2.561,0,0,0-2.707,2.644V68.36h-1.762c-.063,0-.063-9.819-.063-9.819Zm9.882,0h1.951V55.456H193.8V58.54h2.4v1.448h-2.4V65.4c0,1.2.315,1.7,1.574,1.7.315,0,.566-.063.755-.063V68.36a4.326,4.326,0,0,1-1.385.189c-1.888,0-2.707-1.007-2.707-2.769V59.925H190.09V58.541Zm7.994,0h1.7l.063,1.511h.063a2.831,2.831,0,0,1,2.518-1.7,2.794,2.794,0,0,1,.818.126v1.7a3.066,3.066,0,0,0-.944-.126,2.294,2.294,0,0,0-2.455,2.392V68.36h-1.762V58.541ZM213.44,68.36h-1.7V66.912h-.063a3.783,3.783,0,0,1-3.21,1.637A3.238,3.238,0,0,1,205,65.087V58.541h1.762v6.231a2.064,2.064,0,0,0,2.2,2.266,2.561,2.561,0,0,0,2.707-2.644V58.541h1.762V68.36Zm4.66-8.56a3.211,3.211,0,0,1,2.9-1.511,3.089,3.089,0,0,1,2.958,1.7,3.566,3.566,0,0,1,3.21-1.7,3.027,3.027,0,0,1,3.273,3.084V68.3h-1.762V61.814A1.851,1.851,0,0,0,226.66,59.8a2.264,2.264,0,0,0-2.392,2.329V68.36h-1.762V61.814a1.882,1.882,0,0,0-2.014-2.014,2.264,2.264,0,0,0-2.392,2.329V68.36h-1.762V58.541h1.7Zm27.7-1.259-3.9,9.819H240.07l-3.84-9.819h1.888l2.9,7.868h.063l2.9-7.868h1.825Zm.881,4.91c0-2.832,1.762-5.161,4.847-5.161s4.784,2.329,4.784,5.161-1.7,5.1-4.784,5.1-4.847-2.269-4.847-5.1Zm1.762,0c0,1.951,1.007,3.651,3.084,3.651s3.084-1.7,3.084-3.651-1.07-3.651-3.084-3.651-3.084,1.7-3.084,3.65Zm9.5,0c0-2.832,1.762-5.161,4.847-5.161s4.784,2.329,4.784,5.161-1.7,5.1-4.784,5.1-4.842-2.269-4.842-5.1Zm1.762,0c0,1.951,1.007,3.651,3.084,3.651s3.084-1.7,3.084-3.651S264.8,59.8,262.789,59.8s-3.089,1.7-3.089,3.65Zm10.134-4.91h1.7l.063,1.511h.063a2.831,2.831,0,0,1,2.518-1.7,2.793,2.793,0,0,1,.818.126v1.7a3.066,3.066,0,0,0-.944-.126,2.294,2.294,0,0,0-2.455,2.392V68.36h-1.762V58.541ZM167.557,78.871,162.4,92.907h-2.014l-5.224-14.036h2.014l4.28,11.707h.063l4.154-11.707Zm8.183,12.651a4.744,4.744,0,0,1-3.714,1.574c-3.084,0-4.847-2.014-4.847-5.161s1.762-5.1,4.6-5.1,4.343,2.077,4.343,4.784a5.088,5.088,0,0,1-.063,1.007h-7.113a2.907,2.907,0,0,0,3.084,2.958,2.964,2.964,0,0,0,2.518-1.2l1.2,1.133Zm-1.385-4.28c-.126-1.637-.944-2.9-2.644-2.9s-2.644,1.259-2.769,2.9Zm3.839-8.371h1.888v1.888h-1.888Zm.063,14.036V83.088h1.762v9.819h-1.762Zm4.658,0V78.871h1.762V92.907h-1.762Zm4.532-14.036h1.888v1.888h-1.888Zm.126,14.036V83.088h1.762v9.819h-1.762Zm13.218-1.07c0,3.147-2.014,4.658-4.972,4.658a6.849,6.849,0,0,1-3.714-1.007l.755-1.385a4.663,4.663,0,0,0,2.9.944c1.825,0,3.273-.818,3.273-3.147v-.881h-.063a3.733,3.733,0,0,1-3.273,1.762c-2.581,0-4.217-2.2-4.217-4.847s1.637-4.972,4.343-4.972a3.716,3.716,0,0,1,3.21,1.637h.063l.063-1.385H200.8v8.623Zm-1.7-4.028c0-1.888-1.07-3.4-2.9-3.4s-2.9,1.574-2.9,3.4.881,3.4,2.9,3.4,2.9-1.509,2.9-3.4Zm4.6-8.938h1.762v5.665h.063a3.6,3.6,0,0,1,3.147-1.637,3.238,3.238,0,0,1,3.462,3.462v6.546h-1.762V86.676a2.1,2.1,0,0,0-2.2-2.266,2.561,2.561,0,0,0-2.707,2.644v5.854h-1.762V78.871Zm19.2,12.651A4.744,4.744,0,0,1,219.17,93.1c-3.084,0-4.847-2.014-4.847-5.161s1.762-5.1,4.6-5.1,4.343,2.077,4.343,4.784a5.086,5.086,0,0,1-.063,1.007h-7.113a2.907,2.907,0,0,0,3.084,2.958,2.964,2.964,0,0,0,2.518-1.2l1.2,1.133Zm-1.322-4.28c-.126-1.637-.944-2.9-2.644-2.9s-2.644,1.259-2.832,2.9Zm3.84-8.371h1.888v1.888H225.4Zm.063,14.036V83.088h1.762v9.819h-1.762ZM229.5,88.06c0-2.9,1.7-5.224,4.469-5.224a3.8,3.8,0,0,1,3.21,1.637h.063V78.808H239v14.1h-1.7V91.334h-.063A3.911,3.911,0,0,1,233.9,93.1c-2.769,0-4.406-2.266-4.406-5.035Zm7.8-.06c0-2.14-1.133-3.588-3.021-3.588-2.077,0-2.958,1.762-2.958,3.651s.944,3.588,2.958,3.588S237.3,90.075,237.3,88Zm16.994,3.525A4.744,4.744,0,0,1,250.58,93.1c-3.084,0-4.847-2.014-4.847-5.161s1.762-5.1,4.6-5.1,4.343,2.077,4.343,4.784a5.088,5.088,0,0,1-.063,1.007h-7.113a2.907,2.907,0,0,0,3.084,2.958,2.964,2.964,0,0,0,2.518-1.2l1.2,1.133Zm-1.385-4.28c-.126-1.637-.944-2.9-2.644-2.9s-2.644,1.259-2.832,2.9Zm3.9-4.154h1.7l.063,1.448h.063a3.565,3.565,0,0,1,3.21-1.637,3.238,3.238,0,0,1,3.462,3.462V92.91h-1.825V86.676a2.1,2.1,0,0,0-2.2-2.266,2.561,2.561,0,0,0-2.707,2.644v5.854H256.81v-9.82Zm-100.142,20.33h4.721c4.721,0,7.113,3.147,7.113,7.05,0,4.217-2.707,7.05-6.924,7.05h-4.91Zm4.784,12.463c3.084,0,5.161-1.762,5.161-5.413s-2.329-5.413-5.287-5.413h-2.769v10.826h2.9Zm9.253-12.463h1.888v1.888H170.7Zm.063,14.036v-9.819h1.762v9.819Zm13.218-1.07c0,3.147-2.014,4.658-4.972,4.658a6.849,6.849,0,0,1-3.714-1.007l.755-1.385a4.663,4.663,0,0,0,2.9.944c1.825,0,3.273-.818,3.273-3.147v-.881h-.063a3.733,3.733,0,0,1-3.273,1.762c-2.581,0-4.217-2.2-4.217-4.847s1.637-4.972,4.343-4.972a3.716,3.716,0,0,1,3.21,1.637h.063l.063-1.385h1.637v8.623Zm-1.637-4.028c0-1.888-1.07-3.4-2.9-3.4s-2.9,1.574-2.9,3.4.881,3.4,2.9,3.4,2.9-1.514,2.9-3.4Zm4.469-8.938h1.888v1.888h-1.888Zm.063,14.036v-9.819h1.762v9.819Zm3.4-9.819h1.951v-3.084h1.762v3.084h2.392v1.448h-2.392V114.5c0,1.2.315,1.7,1.574,1.7.315,0,.566-.063.755-.063v1.385a7.358,7.358,0,0,1-1.385.189c-1.888,0-2.707-1.007-2.707-2.769v-5.854h-1.951Zm13.659,9.819-.063-1.448h-.063a3.337,3.337,0,0,1-2.958,1.637,2.862,2.862,0,0,1-3.147-2.958,2.554,2.554,0,0,1,1.888-2.581,16.282,16.282,0,0,1,4.28-.5v-.881c0-1.007-.692-1.888-2.2-1.888a2.126,2.126,0,0,0-2.266,1.511l-1.448-.692a3.685,3.685,0,0,1,3.777-2.266c2.329,0,3.839,1.2,3.839,3.4v6.672h-1.637Zm0-3.84v-.566a19.027,19.027,0,0,0-2.518.189c-1.133.126-1.951.441-1.951,1.448,0,.944.692,1.511,1.825,1.511a2.567,2.567,0,0,0,2.643-2.584Zm4.532,3.84v-14.1h1.762v14.1Zm4.6-14.036h1.888v1.888h-1.888Zm.063,14.036v-9.819h1.762v9.819Zm3.714-1.259,1.07-1.2a4.474,4.474,0,0,0,3.147,1.2c1.574,0,2.329-.566,2.329-1.385,0-.944-1.007-1.133-2.644-1.511-1.825-.378-3.525-1.007-3.525-2.9,0-1.7,1.322-2.958,3.9-2.958a5.62,5.62,0,0,1,3.84,1.385l-1.07,1.2a4.052,4.052,0,0,0-2.832-1.133c-1.385,0-2.077.566-2.077,1.322,0,.944.881,1.133,2.581,1.511,1.825.378,3.525.944,3.525,2.9,0,1.825-1.448,3.084-4.091,3.084a5.878,5.878,0,0,1-4.154-1.511Zm18.316-.126a4.744,4.744,0,0,1-3.714,1.574c-3.084,0-4.847-2.014-4.847-5.1s1.762-5.1,4.6-5.1,4.343,2.14,4.343,4.784a5.088,5.088,0,0,1-.063,1.007H228.36a2.907,2.907,0,0,0,3.084,2.958,2.964,2.964,0,0,0,2.518-1.2l1.2,1.07Zm-1.385-4.28c-.126-1.637-.944-2.9-2.644-2.9s-2.644,1.259-2.832,2.9Zm3.9-4.154h1.7l.063,1.511h.063a2.831,2.831,0,0,1,2.518-1.7,2.793,2.793,0,0,1,.818.126v1.7a3.066,3.066,0,0,0-.944-.126,2.294,2.294,0,0,0-2.455,2.392v5.98h-1.762v-9.882Zm6.924-4.217h1.888v1.888H244.6Zm.063,14.036v-9.819h1.762v9.819Zm4.658-9.819h1.7l.063,1.448h.063a3.565,3.565,0,0,1,3.21-1.637,3.238,3.238,0,0,1,3.462,3.462v6.546h-1.888v-6.231a2.1,2.1,0,0,0-2.2-2.266,2.561,2.561,0,0,0-2.707,2.644v5.854H249.26v-9.819Zm19.827,8.749c0,3.147-2.014,4.658-4.972,4.658a6.849,6.849,0,0,1-3.714-1.007l.755-1.385a4.662,4.662,0,0,0,2.9.944c1.825,0,3.273-.818,3.273-3.147v-.881h-.063a3.733,3.733,0,0,1-3.273,1.762c-2.581,0-4.217-2.2-4.217-4.847s1.637-4.972,4.343-4.972a3.716,3.716,0,0,1,3.21,1.637h.063l.063-1.385h1.637v8.623Zm-1.637-4.028c0-1.888-1.07-3.4-2.9-3.4s-2.9,1.574-2.9,3.4.881,3.4,2.9,3.4,2.9-1.514,2.9-3.4Z" transform="translate(-35 -35)" fill="#6808ff"/>
</svg>
